<svg xmlns="http://www.w3.org/2000/svg" version="1.1" xmlns:xlink="http://www.w3.org/1999/xlink" xmlns:svgjs="http://svgjs.dev/svgjs" width="1440" height="560" preserveAspectRatio="none" viewBox="0 0 1440 560"><g mask="url(&quot;#SvgjsMask1006&quot;)" fill="none"><rect width="1440" height="560" x="0" y="0" fill="#0e2a47"></rect><path d="M-83.48 512.76L-83.48 512.76" stroke="#132e65" stroke-width="1.5"></path><path d="M-83.48 512.76L37.54 657.83" stroke="#132e65" stroke-width="1.5"></path><path d="M-83.48 512.76L105.58 514.56" stroke="#132e65" stroke-width="1.5"></path><path d="M77.24 352.01L77.24 352.01" stroke="#132e65" stroke-width="1.5"></path><path d="M77.24 352.01L217.36 350.85" stroke="#132e65" stroke-width="1.5"></path><path d="M77.24 352.01L105.58 514.56" stroke="#132e65" stroke-width="1.5"></path><path d="M77.24 352.01L-83.48 512.76" stroke="#132e65" stroke-width="1.5"></path><path d="M105.58 514.56L105.58 514.56" stroke="#132e65" stroke-width="1.5"></path><path d="M105.58 514.56L258.31 495.25" stroke="#132e65" stroke-width="1.5"></path><path d="M105.58 514.56L37.54 657.83" stroke="#132e65" stroke-width="1.5"></path><path d="M37.54 657.83L37.54 657.83" stroke="#132e65" stroke-width="1.5"></path><path d="M217.36 350.85L217.36 350.85" stroke="#132e65" stroke-width="1.5"></path><path d="M217.36 350.85L258.31 495.25" stroke="#132e65" stroke-width="1.5"></path><path d="M258.31 495.25L258.31 495.25" stroke="#132e65" stroke-width="1.5"></path><path d="M258.31 495.25L408.74 519.55" stroke="#132e65" stroke-width="1.5"></path><path d="M258.31 495.25L236.18 679.8" stroke="#132e65" stroke-width="1.5"></path><path d="M236.18 679.8L236.18 679.8" stroke="#132e65" stroke-width="1.5"></path><path d="M236.18 679.8L343.9 662.77" stroke="#132e65" stroke-width="1.5"></path><path d="M236.18 679.8L37.54 657.83" stroke="#132e65" stroke-width="1.5"></path><path d="M236.18 679.8L105.58 514.56" stroke="#132e65" stroke-width="1.5"></path><path d="M408.74 519.55L408.74 519.55" stroke="#132e65" stroke-width="1.5"></path><path d="M408.74 519.55L546.57 530.79" stroke="#132e65" stroke-width="1.5"></path><path d="M408.74 519.55L343.9 662.77" stroke="#132e65" stroke-width="1.5"></path><path d="M408.74 519.55L554 396.05" stroke="#132e65" stroke-width="1.5"></path><path d="M408.74 519.55L557.86 686.32" stroke="#132e65" stroke-width="1.5"></path><path d="M408.74 519.55L236.18 679.8" stroke="#132e65" stroke-width="1.5"></path><path d="M343.9 662.77L343.9 662.77" stroke="#132e65" stroke-width="1.5"></path><path d="M554 396.05L554 396.05" stroke="#132e65" stroke-width="1.5"></path><path d="M554 396.05L643.64 364.27" stroke="#132e65" stroke-width="1.5"></path><path d="M554 396.05L546.57 530.79" stroke="#132e65" stroke-width="1.5"></path><path d="M554 396.05L654.67 490.88" stroke="#132e65" stroke-width="1.5"></path><path d="M554 396.05L796.44 385.68" stroke="#132e65" stroke-width="1.5"></path><path d="M546.57 530.79L546.57 530.79" stroke="#132e65" stroke-width="1.5"></path><path d="M546.57 530.79L654.67 490.88" stroke="#132e65" stroke-width="1.5"></path><path d="M546.57 530.79L557.86 686.32" stroke="#132e65" stroke-width="1.5"></path><path d="M546.57 530.79L645.91 653.46" stroke="#132e65" stroke-width="1.5"></path><path d="M557.86 686.32L557.86 686.32" stroke="#132e65" stroke-width="1.5"></path><path d="M557.86 686.32L645.91 653.46" stroke="#132e65" stroke-width="1.5"></path><path d="M643.64 364.27L643.64 364.27" stroke="#132e65" stroke-width="1.5"></path><path d="M643.64 364.27L654.67 490.88" stroke="#132e65" stroke-width="1.5"></path><path d="M643.64 364.27L796.44 385.68" stroke="#132e65" stroke-width="1.5"></path><path d="M654.67 490.88L654.67 490.88" stroke="#132e65" stroke-width="1.5"></path><path d="M654.67 490.88L794.61 544.51" stroke="#132e65" stroke-width="1.5"></path><path d="M654.67 490.88L645.91 653.46" stroke="#132e65" stroke-width="1.5"></path><path d="M645.91 653.46L645.91 653.46" stroke="#132e65" stroke-width="1.5"></path><path d="M857.72 218.69L857.72 218.69" stroke="#132e65" stroke-width="1.5"></path><path d="M857.72 218.69L950.38 240.47" stroke="#132e65" stroke-width="1.5"></path><path d="M857.72 218.69L943.25 374.39" stroke="#132e65" stroke-width="1.5"></path><path d="M857.72 218.69L796.44 385.68" stroke="#132e65" stroke-width="1.5"></path><path d="M857.72 218.69L971.01 80.3" stroke="#132e65" stroke-width="1.5"></path><path d="M857.72 218.69L1091.49 219.79" stroke="#132e65" stroke-width="1.5"></path><path d="M857.72 218.69L643.64 364.27" stroke="#132e65" stroke-width="1.5"></path><path d="M796.44 385.68L796.44 385.68" stroke="#132e65" stroke-width="1.5"></path><path d="M796.44 385.68L943.25 374.39" stroke="#132e65" stroke-width="1.5"></path><path d="M796.44 385.68L794.61 544.51" stroke="#132e65" stroke-width="1.5"></path><path d="M794.61 544.51L794.61 544.51" stroke="#132e65" stroke-width="1.5"></path><path d="M794.61 544.51L947.11 551.08" stroke="#132e65" stroke-width="1.5"></path><path d="M794.61 544.51L833.26 693.44" stroke="#132e65" stroke-width="1.5"></path><path d="M833.26 693.44L833.26 693.44" stroke="#132e65" stroke-width="1.5"></path><path d="M833.26 693.44L984.7 674.96" stroke="#132e65" stroke-width="1.5"></path><path d="M833.26 693.44L947.11 551.08" stroke="#132e65" stroke-width="1.5"></path><path d="M833.26 693.44L645.91 653.46" stroke="#132e65" stroke-width="1.5"></path><path d="M833.26 693.44L654.67 490.88" stroke="#132e65" stroke-width="1.5"></path><path d="M959.13 -52.03L959.13 -52.03" stroke="#132e65" stroke-width="1.5"></path><path d="M959.13 -52.03L971.01 80.3" stroke="#132e65" stroke-width="1.5"></path><path d="M959.13 -52.03L1133.57 -41.86" stroke="#132e65" stroke-width="1.5"></path><path d="M959.13 -52.03L1110.19 77.66" stroke="#132e65" stroke-width="1.5"></path><path d="M959.13 -52.03L857.72 218.69" stroke="#132e65" stroke-width="1.5"></path><path d="M959.13 -52.03L950.38 240.47" stroke="#132e65" stroke-width="1.5"></path><path d="M971.01 80.3L971.01 80.3" stroke="#132e65" stroke-width="1.5"></path><path d="M971.01 80.3L1110.19 77.66" stroke="#132e65" stroke-width="1.5"></path><path d="M971.01 80.3L950.38 240.47" stroke="#132e65" stroke-width="1.5"></path><path d="M971.01 80.3L1091.49 219.79" stroke="#132e65" stroke-width="1.5"></path><path d="M971.01 80.3L1133.57 -41.86" stroke="#132e65" stroke-width="1.5"></path><path d="M950.38 240.47L950.38 240.47" stroke="#132e65" stroke-width="1.5"></path><path d="M950.38 240.47L943.25 374.39" stroke="#132e65" stroke-width="1.5"></path><path d="M950.38 240.47L1091.49 219.79" stroke="#132e65" stroke-width="1.5"></path><path d="M943.25 374.39L943.25 374.39" stroke="#132e65" stroke-width="1.5"></path><path d="M943.25 374.39L947.11 551.08" stroke="#132e65" stroke-width="1.5"></path><path d="M943.25 374.39L1141.72 352.08" stroke="#132e65" stroke-width="1.5"></path><path d="M943.25 374.39L1091.49 219.79" stroke="#132e65" stroke-width="1.5"></path><path d="M947.11 551.08L947.11 551.08" stroke="#132e65" stroke-width="1.5"></path><path d="M947.11 551.08L984.7 674.96" stroke="#132e65" stroke-width="1.5"></path><path d="M947.11 551.08L1161.93 542.69" stroke="#132e65" stroke-width="1.5"></path><path d="M947.11 551.08L796.44 385.68" stroke="#132e65" stroke-width="1.5"></path><path d="M984.7 674.96L984.7 674.96" stroke="#132e65" stroke-width="1.5"></path><path d="M1133.57 -41.86L1133.57 -41.86" stroke="#132e65" stroke-width="1.5"></path><path d="M1133.57 -41.86L1110.19 77.66" stroke="#132e65" stroke-width="1.5"></path><path d="M1133.57 -41.86L1252.71 97.89" stroke="#132e65" stroke-width="1.5"></path><path d="M1133.57 -41.86L1305.42 -110.16" stroke="#132e65" stroke-width="1.5"></path><path d="M1110.19 77.66L1110.19 77.66" stroke="#132e65" stroke-width="1.5"></path><path d="M1110.19 77.66L1091.49 219.79" stroke="#132e65" stroke-width="1.5"></path><path d="M1110.19 77.66L1252.71 97.89" stroke="#132e65" stroke-width="1.5"></path><path d="M1091.49 219.79L1091.49 219.79" stroke="#132e65" stroke-width="1.5"></path><path d="M1091.49 219.79L1141.72 352.08" stroke="#132e65" stroke-width="1.5"></path><path d="M1141.72 352.08L1141.72 352.08" stroke="#132e65" stroke-width="1.5"></path><path d="M1141.72 352.08L1291.86 378.04" stroke="#132e65" stroke-width="1.5"></path><path d="M1141.72 352.08L1270.99 489.1" stroke="#132e65" stroke-width="1.5"></path><path d="M1141.72 352.08L1161.93 542.69" stroke="#132e65" stroke-width="1.5"></path><path d="M1161.93 542.69L1161.93 542.69" stroke="#132e65" stroke-width="1.5"></path><path d="M1161.93 542.69L1270.99 489.1" stroke="#132e65" stroke-width="1.5"></path><path d="M1161.93 542.69L1143.53 682.39" stroke="#132e65" stroke-width="1.5"></path><path d="M1143.53 682.39L1143.53 682.39" stroke="#132e65" stroke-width="1.5"></path><path d="M1143.53 682.39L1290.98 708.05" stroke="#132e65" stroke-width="1.5"></path><path d="M1305.42 -110.16L1305.42 -110.16" stroke="#132e65" stroke-width="1.5"></path><path d="M1305.42 -110.16L1446.89 -38.68" stroke="#132e65" stroke-width="1.5"></path><path d="M1305.42 -110.16L1252.71 97.89" stroke="#132e65" stroke-width="1.5"></path><path d="M1252.71 97.89L1252.71 97.89" stroke="#132e65" stroke-width="1.5"></path><path d="M1252.71 97.89L1294.12 232.73" stroke="#132e65" stroke-width="1.5"></path><path d="M1294.12 232.73L1294.12 232.73" stroke="#132e65" stroke-width="1.5"></path><path d="M1294.12 232.73L1291.86 378.04" stroke="#132e65" stroke-width="1.5"></path><path d="M1294.12 232.73L1451.62 224.75" stroke="#132e65" stroke-width="1.5"></path><path d="M1294.12 232.73L1141.72 352.08" stroke="#132e65" stroke-width="1.5"></path><path d="M1294.12 232.73L1091.49 219.79" stroke="#132e65" stroke-width="1.5"></path><path d="M1291.86 378.04L1291.86 378.04" stroke="#132e65" stroke-width="1.5"></path><path d="M1291.86 378.04L1270.99 489.1" stroke="#132e65" stroke-width="1.5"></path><path d="M1291.86 378.04L1453.7 389.26" stroke="#132e65" stroke-width="1.5"></path><path d="M1291.86 378.04L1161.93 542.69" stroke="#132e65" stroke-width="1.5"></path><path d="M1270.99 489.1L1270.99 489.1" stroke="#132e65" stroke-width="1.5"></path><path d="M1270.99 489.1L1445.1 554.63" stroke="#132e65" stroke-width="1.5"></path><path d="M1290.98 708.05L1290.98 708.05" stroke="#132e65" stroke-width="1.5"></path><path d="M1290.98 708.05L1446.72 661.49" stroke="#132e65" stroke-width="1.5"></path><path d="M1290.98 708.05L1161.93 542.69" stroke="#132e65" stroke-width="1.5"></path><path d="M1290.98 708.05L1445.1 554.63" stroke="#132e65" stroke-width="1.5"></path><path d="M1290.98 708.05L1270.99 489.1" stroke="#132e65" stroke-width="1.5"></path><path d="M1290.98 708.05L1564.98 701.71" stroke="#132e65" stroke-width="1.5"></path><path d="M1446.89 -38.68L1446.89 -38.68" stroke="#132e65" stroke-width="1.5"></path><path d="M1446.89 -38.68L1447.4 56.33" stroke="#132e65" stroke-width="1.5"></path><path d="M1446.89 -38.68L1600.56 -74.93" stroke="#132e65" stroke-width="1.5"></path><path d="M1446.89 -38.68L1252.71 97.89" stroke="#132e65" stroke-width="1.5"></path><path d="M1446.89 -38.68L1451.62 224.75" stroke="#132e65" stroke-width="1.5"></path><path d="M1446.89 -38.68L1562.72 238.45" stroke="#132e65" stroke-width="1.5"></path><path d="M1447.4 56.33L1447.4 56.33" stroke="#132e65" stroke-width="1.5"></path><path d="M1447.4 56.33L1451.62 224.75" stroke="#132e65" stroke-width="1.5"></path><path d="M1447.4 56.33L1252.71 97.89" stroke="#132e65" stroke-width="1.5"></path><path d="M1447.4 56.33L1600.56 -74.93" stroke="#132e65" stroke-width="1.5"></path><path d="M1447.4 56.33L1562.72 238.45" stroke="#132e65" stroke-width="1.5"></path><path d="M1447.4 56.33L1305.42 -110.16" stroke="#132e65" stroke-width="1.5"></path><path d="M1451.62 224.75L1451.62 224.75" stroke="#132e65" stroke-width="1.5"></path><path d="M1451.62 224.75L1562.72 238.45" stroke="#132e65" stroke-width="1.5"></path><path d="M1451.62 224.75L1453.7 389.26" stroke="#132e65" stroke-width="1.5"></path><path d="M1451.62 224.75L1580.82 372.75" stroke="#132e65" stroke-width="1.5"></path><path d="M1451.62 224.75L1291.86 378.04" stroke="#132e65" stroke-width="1.5"></path><path d="M1453.7 389.26L1453.7 389.26" stroke="#132e65" stroke-width="1.5"></path><path d="M1453.7 389.26L1580.82 372.75" stroke="#132e65" stroke-width="1.5"></path><path d="M1453.7 389.26L1445.1 554.63" stroke="#132e65" stroke-width="1.5"></path><path d="M1453.7 389.26L1562.72 238.45" stroke="#132e65" stroke-width="1.5"></path><path d="M1445.1 554.63L1445.1 554.63" stroke="#132e65" stroke-width="1.5"></path><path d="M1445.1 554.63L1446.72 661.49" stroke="#132e65" stroke-width="1.5"></path><path d="M1445.1 554.63L1592.14 527.63" stroke="#132e65" stroke-width="1.5"></path><path d="M1445.1 554.63L1564.98 701.71" stroke="#132e65" stroke-width="1.5"></path><path d="M1446.72 661.49L1446.72 661.49" stroke="#132e65" stroke-width="1.5"></path><path d="M1446.72 661.49L1564.98 701.71" stroke="#132e65" stroke-width="1.5"></path><path d="M1446.72 661.49L1592.14 527.63" stroke="#132e65" stroke-width="1.5"></path><path d="M1446.72 661.49L1270.99 489.1" stroke="#132e65" stroke-width="1.5"></path><path d="M1446.72 661.49L1453.7 389.26" stroke="#132e65" stroke-width="1.5"></path><path d="M1600.56 -74.93L1600.56 -74.93" stroke="#132e65" stroke-width="1.5"></path><path d="M1562.72 238.45L1562.72 238.45" stroke="#132e65" stroke-width="1.5"></path><path d="M1562.72 238.45L1580.82 372.75" stroke="#132e65" stroke-width="1.5"></path><path d="M1580.82 372.75L1580.82 372.75" stroke="#132e65" stroke-width="1.5"></path><path d="M1580.82 372.75L1592.14 527.63" stroke="#132e65" stroke-width="1.5"></path><path d="M1592.14 527.63L1592.14 527.63" stroke="#132e65" stroke-width="1.5"></path><path d="M1564.98 701.71L1564.98 701.71" stroke="#132e65" stroke-width="1.5"></path><path d="M1564.98 701.71L1592.14 527.63" stroke="#132e65" stroke-width="1.5"></path><circle r="5" cx="-83.48" cy="512.76" fill="#132e65"></circle><circle r="5" cx="77.24" cy="352.01" fill="#132e65"></circle><circle r="5" cx="105.58" cy="514.56" fill="#132e65"></circle><circle r="5" cx="37.54" cy="657.83" fill="#132e65"></circle><circle r="5" cx="217.36" cy="350.85" fill="#132e65"></circle><circle r="5" cx="258.31" cy="495.25" fill="#132e65"></circle><circle r="5" cx="236.18" cy="679.8" fill="#132e65"></circle><circle r="5" cx="408.74" cy="519.55" fill="#132e65"></circle><circle r="5" cx="343.9" cy="662.77" fill="#132e65"></circle><circle r="5" cx="554" cy="396.05" fill="#132e65"></circle><circle r="5" cx="546.57" cy="530.79" fill="#132e65"></circle><circle r="5" cx="557.86" cy="686.32" fill="#132e65"></circle><circle r="5" cx="643.64" cy="364.27" fill="#132e65"></circle><circle r="5" cx="654.67" cy="490.88" fill="#132e65"></circle><circle r="5" cx="645.91" cy="653.46" fill="#132e65"></circle><circle r="5" cx="857.72" cy="218.69" fill="#132e65"></circle><circle r="5" cx="796.44" cy="385.68" fill="#132e65"></circle><circle r="5" cx="794.61" cy="544.51" fill="#132e65"></circle><circle r="5" cx="833.26" cy="693.44" fill="#132e65"></circle><circle r="5" cx="959.13" cy="-52.03" fill="#132e65"></circle><circle r="5" cx="971.01" cy="80.3" fill="#132e65"></circle><circle r="5" cx="950.38" cy="240.47" fill="#132e65"></circle><circle r="5" cx="943.25" cy="374.39" fill="#132e65"></circle><circle r="5" cx="947.11" cy="551.08" fill="#132e65"></circle><circle r="5" cx="984.7" cy="674.96" fill="#132e65"></circle><circle r="5" cx="1133.57" cy="-41.86" fill="#132e65"></circle><circle r="5" cx="1110.19" cy="77.66" fill="#132e65"></circle><circle r="5" cx="1091.49" cy="219.79" fill="#132e65"></circle><circle r="5" cx="1141.72" cy="352.08" fill="#132e65"></circle><circle r="5" cx="1161.93" cy="542.69" fill="#132e65"></circle><circle r="5" cx="1143.53" cy="682.39" fill="#132e65"></circle><circle r="5" cx="1305.42" cy="-110.16" fill="#132e65"></circle><circle r="5" cx="1252.71" cy="97.89" fill="#132e65"></circle><circle r="5" cx="1294.12" cy="232.73" fill="#132e65"></circle><circle r="5" cx="1291.86" cy="378.04" fill="#132e65"></circle><circle r="5" cx="1270.99" cy="489.1" fill="#132e65"></circle><circle r="5" cx="1290.98" cy="708.05" fill="#132e65"></circle><circle r="5" cx="1446.89" cy="-38.68" fill="#132e65"></circle><circle r="5" cx="1447.4" cy="56.33" fill="#132e65"></circle><circle r="5" cx="1451.62" cy="224.75" fill="#132e65"></circle><circle r="5" cx="1453.7" cy="389.26" fill="#132e65"></circle><circle r="5" cx="1445.1" cy="554.63" fill="#132e65"></circle><circle r="5" cx="1446.72" cy="661.49" fill="#132e65"></circle><circle r="5" cx="1600.56" cy="-74.93" fill="#132e65"></circle><circle r="5" cx="1562.72" cy="238.45" fill="#132e65"></circle><circle r="5" cx="1580.82" cy="372.75" fill="#132e65"></circle><circle r="5" cx="1592.14" cy="527.63" fill="#132e65"></circle><circle r="5" cx="1564.98" cy="701.71" fill="#132e65"></circle><path d="M550.82 399.92L550.82 399.92" stroke="hsl(228.5, 77.2%, 51.5%)" stroke-width="1.5"></path><path d="M550.82 399.92L551.02 488.76" stroke="hsl(228.5, 77.2%, 51.5%)" stroke-width="1.5"></path><path d="M550.82 399.92L678.54 499.71" stroke="hsl(228.5, 77.2%, 51.5%)" stroke-width="1.5"></path><path d="M551.02 488.76L551.02 488.76" stroke="hsl(228.5, 77.2%, 51.5%)" stroke-width="1.5"></path><path d="M551.02 488.76L678.54 499.71" stroke="hsl(228.5, 77.2%, 51.5%)" stroke-width="1.5"></path><path d="M551.02 488.76L407.51 525.89" stroke="hsl(228.5, 77.2%, 51.5%)" stroke-width="1.5"></path><path d="M965.66 666.87L965.66 666.87" stroke="hsl(228.5, 77.2%, 51.5%)" stroke-width="1.5"></path><path d="M965.66 666.87L1087.92 650.59" stroke="hsl(228.5, 77.2%, 51.5%)" stroke-width="1.5"></path><path d="M965.66 666.87L1002.48 544.12" stroke="hsl(228.5, 77.2%, 51.5%)" stroke-width="1.5"></path><path d="M965.66 666.87L843.21 557.18" stroke="hsl(228.5, 77.2%, 51.5%)" stroke-width="1.5"></path><path d="M1148.66 241.61L1148.66 241.61" stroke="hsl(228.5, 77.2%, 51.5%)" stroke-width="1.5"></path><path d="M1148.66 241.61L1248.74 220.28" stroke="hsl(228.5, 77.2%, 51.5%)" stroke-width="1.5"></path><path d="M1148.66 241.61L1100.51 338.8" stroke="hsl(228.5, 77.2%, 51.5%)" stroke-width="1.5"></path><path d="M1148.66 241.61L1251.7 399.34" stroke="hsl(228.5, 77.2%, 51.5%)" stroke-width="1.5"></path><path d="M1148.66 241.61L1242.77 55.11" stroke="hsl(228.5, 77.2%, 51.5%)" stroke-width="1.5"></path><path d="M1148.66 241.61L942.26 380.48" stroke="hsl(228.5, 77.2%, 51.5%)" stroke-width="1.5"></path><path d="M1148.66 241.61L1149 505.57" stroke="hsl(228.5, 77.2%, 51.5%)" stroke-width="1.5"></path><path d="M1087.92 650.59L1087.92 650.59" stroke="hsl(228.5, 77.2%, 51.5%)" stroke-width="1.5"></path><path d="M1087.92 650.59L1002.48 544.12" stroke="hsl(228.5, 77.2%, 51.5%)" stroke-width="1.5"></path><path d="M1242.77 55.11L1242.77 55.11" stroke="hsl(228.5, 77.2%, 51.5%)" stroke-width="1.5"></path><path d="M1242.77 55.11L1301.01 -43.96" stroke="hsl(228.5, 77.2%, 51.5%)" stroke-width="1.5"></path><path d="M1242.77 55.11L1397.01 79.56" stroke="hsl(228.5, 77.2%, 51.5%)" stroke-width="1.5"></path><path d="M1248.74 220.28L1248.74 220.28" stroke="hsl(228.5, 77.2%, 51.5%)" stroke-width="1.5"></path><path d="M1248.74 220.28L1242.77 55.11" stroke="hsl(228.5, 77.2%, 51.5%)" stroke-width="1.5"></path><path d="M1248.74 220.28L1251.7 399.34" stroke="hsl(228.5, 77.2%, 51.5%)" stroke-width="1.5"></path><path d="M1248.74 220.28L1431.42 217.75" stroke="hsl(228.5, 77.2%, 51.5%)" stroke-width="1.5"></path><path d="M1248.74 220.28L1100.51 338.8" stroke="hsl(228.5, 77.2%, 51.5%)" stroke-width="1.5"></path><path d="M1248.74 220.28L1397.01 79.56" stroke="hsl(228.5, 77.2%, 51.5%)" stroke-width="1.5"></path><path d="M1455.43 382.85L1455.43 382.85" stroke="hsl(228.5, 77.2%, 51.5%)" stroke-width="1.5"></path><path d="M1455.43 382.85L1581.91 351.01" stroke="hsl(228.5, 77.2%, 51.5%)" stroke-width="1.5"></path><path d="M1455.43 382.85L1457.22 533.27" stroke="hsl(228.5, 77.2%, 51.5%)" stroke-width="1.5"></path><path d="M1546.35 524.78L1546.35 524.78" stroke="hsl(228.5, 77.2%, 51.5%)" stroke-width="1.5"></path><path d="M1546.35 524.78L1457.22 533.27" stroke="hsl(228.5, 77.2%, 51.5%)" stroke-width="1.5"></path><path d="M1546.35 524.78L1578.15 653.53" stroke="hsl(228.5, 77.2%, 51.5%)" stroke-width="1.5"></path><path d="M-105.5 506.74L-105.5 506.74" stroke="hsl(228.5, 77.2%, 51.5%)" stroke-width="1.5"></path><path d="M-105.5 506.74L-77.74 668.92" stroke="hsl(228.5, 77.2%, 51.5%)" stroke-width="1.5"></path><path d="M-105.5 506.74L80.32 521.92" stroke="hsl(228.5, 77.2%, 51.5%)" stroke-width="1.5"></path><path d="M-77.74 668.92L-77.74 668.92" stroke="hsl(228.5, 77.2%, 51.5%)" stroke-width="1.5"></path><path d="M-77.74 668.92L50.06 699.57" stroke="hsl(228.5, 77.2%, 51.5%)" stroke-width="1.5"></path><path d="M-77.74 668.92L80.32 521.92" stroke="hsl(228.5, 77.2%, 51.5%)" stroke-width="1.5"></path><path d="M-77.74 668.92L222.27 670.35" stroke="hsl(228.5, 77.2%, 51.5%)" stroke-width="1.5"></path><path d="M80.32 521.92L80.32 521.92" stroke="hsl(228.5, 77.2%, 51.5%)" stroke-width="1.5"></path><path d="M80.32 521.92L50.06 699.57" stroke="hsl(228.5, 77.2%, 51.5%)" stroke-width="1.5"></path><path d="M80.32 521.92L261.45 517.26" stroke="hsl(228.5, 77.2%, 51.5%)" stroke-width="1.5"></path><path d="M50.06 699.57L50.06 699.57" stroke="hsl(228.5, 77.2%, 51.5%)" stroke-width="1.5"></path><path d="M50.06 699.57L222.27 670.35" stroke="hsl(228.5, 77.2%, 51.5%)" stroke-width="1.5"></path><path d="M261.45 517.26L261.45 517.26" stroke="hsl(228.5, 77.2%, 51.5%)" stroke-width="1.5"></path><path d="M261.45 517.26L407.51 525.89" stroke="hsl(228.5, 77.2%, 51.5%)" stroke-width="1.5"></path><path d="M261.45 517.26L358.82 638.16" stroke="hsl(228.5, 77.2%, 51.5%)" stroke-width="1.5"></path><path d="M261.45 517.26L222.27 670.35" stroke="hsl(228.5, 77.2%, 51.5%)" stroke-width="1.5"></path><path d="M222.27 670.35L222.27 670.35" stroke="hsl(228.5, 77.2%, 51.5%)" stroke-width="1.5"></path><path d="M222.27 670.35L358.82 638.16" stroke="hsl(228.5, 77.2%, 51.5%)" stroke-width="1.5"></path><path d="M407.51 525.89L407.51 525.89" stroke="hsl(228.5, 77.2%, 51.5%)" stroke-width="1.5"></path><path d="M407.51 525.89L358.82 638.16" stroke="hsl(228.5, 77.2%, 51.5%)" stroke-width="1.5"></path><path d="M358.82 638.16L358.82 638.16" stroke="hsl(228.5, 77.2%, 51.5%)" stroke-width="1.5"></path><path d="M358.82 638.16L505 658.62" stroke="hsl(228.5, 77.2%, 51.5%)" stroke-width="1.5"></path><path d="M505 658.62L505 658.62" stroke="hsl(228.5, 77.2%, 51.5%)" stroke-width="1.5"></path><path d="M505 658.62L407.51 525.89" stroke="hsl(228.5, 77.2%, 51.5%)" stroke-width="1.5"></path><path d="M505 658.62L551.02 488.76" stroke="hsl(228.5, 77.2%, 51.5%)" stroke-width="1.5"></path><path d="M505 658.62L700.81 678.93" stroke="hsl(228.5, 77.2%, 51.5%)" stroke-width="1.5"></path><path d="M678.54 499.71L678.54 499.71" stroke="hsl(228.5, 77.2%, 51.5%)" stroke-width="1.5"></path><path d="M678.54 499.71L843.21 557.18" stroke="hsl(228.5, 77.2%, 51.5%)" stroke-width="1.5"></path><path d="M678.54 499.71L796.98 365.44" stroke="hsl(228.5, 77.2%, 51.5%)" stroke-width="1.5"></path><path d="M700.81 678.93L700.81 678.93" stroke="hsl(228.5, 77.2%, 51.5%)" stroke-width="1.5"></path><path d="M700.81 678.93L678.54 499.71" stroke="hsl(228.5, 77.2%, 51.5%)" stroke-width="1.5"></path><path d="M700.81 678.93L843.21 557.18" stroke="hsl(228.5, 77.2%, 51.5%)" stroke-width="1.5"></path><path d="M700.81 678.93L551.02 488.76" stroke="hsl(228.5, 77.2%, 51.5%)" stroke-width="1.5"></path><path d="M796.98 365.44L796.98 365.44" stroke="hsl(228.5, 77.2%, 51.5%)" stroke-width="1.5"></path><path d="M796.98 365.44L942.26 380.48" stroke="hsl(228.5, 77.2%, 51.5%)" stroke-width="1.5"></path><path d="M843.21 557.18L843.21 557.18" stroke="hsl(228.5, 77.2%, 51.5%)" stroke-width="1.5"></path><path d="M843.21 557.18L1002.48 544.12" stroke="hsl(228.5, 77.2%, 51.5%)" stroke-width="1.5"></path><path d="M843.21 557.18L796.98 365.44" stroke="hsl(228.5, 77.2%, 51.5%)" stroke-width="1.5"></path><path d="M843.21 557.18L942.26 380.48" stroke="hsl(228.5, 77.2%, 51.5%)" stroke-width="1.5"></path><path d="M942.26 380.48L942.26 380.48" stroke="hsl(228.5, 77.2%, 51.5%)" stroke-width="1.5"></path><path d="M942.26 380.48L1100.51 338.8" stroke="hsl(228.5, 77.2%, 51.5%)" stroke-width="1.5"></path><path d="M1002.48 544.12L1002.48 544.12" stroke="hsl(228.5, 77.2%, 51.5%)" stroke-width="1.5"></path><path d="M1002.48 544.12L1149 505.57" stroke="hsl(228.5, 77.2%, 51.5%)" stroke-width="1.5"></path><path d="M1100.51 338.8L1100.51 338.8" stroke="hsl(228.5, 77.2%, 51.5%)" stroke-width="1.5"></path><path d="M1100.51 338.8L1251.7 399.34" stroke="hsl(228.5, 77.2%, 51.5%)" stroke-width="1.5"></path><path d="M1100.51 338.8L1149 505.57" stroke="hsl(228.5, 77.2%, 51.5%)" stroke-width="1.5"></path><path d="M1149 505.57L1149 505.57" stroke="hsl(228.5, 77.2%, 51.5%)" stroke-width="1.5"></path><path d="M1149 505.57L1264.63 528.75" stroke="hsl(228.5, 77.2%, 51.5%)" stroke-width="1.5"></path><path d="M1149 505.57L1251.7 399.34" stroke="hsl(228.5, 77.2%, 51.5%)" stroke-width="1.5"></path><path d="M1149 505.57L1087.92 650.59" stroke="hsl(228.5, 77.2%, 51.5%)" stroke-width="1.5"></path><path d="M1301.01 -43.96L1301.01 -43.96" stroke="hsl(228.5, 77.2%, 51.5%)" stroke-width="1.5"></path><path d="M1301.01 -43.96L1433.11 -47.14" stroke="hsl(228.5, 77.2%, 51.5%)" stroke-width="1.5"></path><path d="M1251.7 399.34L1251.7 399.34" stroke="hsl(228.5, 77.2%, 51.5%)" stroke-width="1.5"></path><path d="M1251.7 399.34L1264.63 528.75" stroke="hsl(228.5, 77.2%, 51.5%)" stroke-width="1.5"></path><path d="M1264.63 528.75L1264.63 528.75" stroke="hsl(228.5, 77.2%, 51.5%)" stroke-width="1.5"></path><path d="M1264.63 528.75L1305.21 671.12" stroke="hsl(228.5, 77.2%, 51.5%)" stroke-width="1.5"></path><path d="M1305.21 671.12L1305.21 671.12" stroke="hsl(228.5, 77.2%, 51.5%)" stroke-width="1.5"></path><path d="M1305.21 671.12L1417.26 705.02" stroke="hsl(228.5, 77.2%, 51.5%)" stroke-width="1.5"></path><path d="M1305.21 671.12L1457.22 533.27" stroke="hsl(228.5, 77.2%, 51.5%)" stroke-width="1.5"></path><path d="M1305.21 671.12L1087.92 650.59" stroke="hsl(228.5, 77.2%, 51.5%)" stroke-width="1.5"></path><path d="M1305.21 671.12L1149 505.57" stroke="hsl(228.5, 77.2%, 51.5%)" stroke-width="1.5"></path><path d="M1433.11 -47.14L1433.11 -47.14" stroke="hsl(228.5, 77.2%, 51.5%)" stroke-width="1.5"></path><path d="M1433.11 -47.14L1397.01 79.56" stroke="hsl(228.5, 77.2%, 51.5%)" stroke-width="1.5"></path><path d="M1397.01 79.56L1397.01 79.56" stroke="hsl(228.5, 77.2%, 51.5%)" stroke-width="1.5"></path><path d="M1397.01 79.56L1431.42 217.75" stroke="hsl(228.5, 77.2%, 51.5%)" stroke-width="1.5"></path><path d="M1431.42 217.75L1431.42 217.75" stroke="hsl(228.5, 77.2%, 51.5%)" stroke-width="1.5"></path><path d="M1431.42 217.75L1594.08 197.7" stroke="hsl(228.5, 77.2%, 51.5%)" stroke-width="1.5"></path><path d="M1431.42 217.75L1455.43 382.85" stroke="hsl(228.5, 77.2%, 51.5%)" stroke-width="1.5"></path><path d="M1431.42 217.75L1590.83 96.07" stroke="hsl(228.5, 77.2%, 51.5%)" stroke-width="1.5"></path><path d="M1431.42 217.75L1581.91 351.01" stroke="hsl(228.5, 77.2%, 51.5%)" stroke-width="1.5"></path><path d="M1457.22 533.27L1457.22 533.27" stroke="hsl(228.5, 77.2%, 51.5%)" stroke-width="1.5"></path><path d="M1457.22 533.27L1578.15 653.53" stroke="hsl(228.5, 77.2%, 51.5%)" stroke-width="1.5"></path><path d="M1417.26 705.02L1417.26 705.02" stroke="hsl(228.5, 77.2%, 51.5%)" stroke-width="1.5"></path><path d="M1417.26 705.02L1578.15 653.53" stroke="hsl(228.5, 77.2%, 51.5%)" stroke-width="1.5"></path><path d="M1417.26 705.02L1457.22 533.27" stroke="hsl(228.5, 77.2%, 51.5%)" stroke-width="1.5"></path><path d="M1417.26 705.02L1546.35 524.78" stroke="hsl(228.5, 77.2%, 51.5%)" stroke-width="1.5"></path><path d="M1417.26 705.02L1264.63 528.75" stroke="hsl(228.5, 77.2%, 51.5%)" stroke-width="1.5"></path><path d="M1584.99 -96.9L1584.99 -96.9" stroke="hsl(228.5, 77.2%, 51.5%)" stroke-width="1.5"></path><path d="M1584.99 -96.9L1433.11 -47.14" stroke="hsl(228.5, 77.2%, 51.5%)" stroke-width="1.5"></path><path d="M1584.99 -96.9L1590.83 96.07" stroke="hsl(228.5, 77.2%, 51.5%)" stroke-width="1.5"></path><path d="M1584.99 -96.9L1397.01 79.56" stroke="hsl(228.5, 77.2%, 51.5%)" stroke-width="1.5"></path><path d="M1590.83 96.07L1590.83 96.07" stroke="hsl(228.5, 77.2%, 51.5%)" stroke-width="1.5"></path><path d="M1590.83 96.07L1594.08 197.7" stroke="hsl(228.5, 77.2%, 51.5%)" stroke-width="1.5"></path><path d="M1590.83 96.07L1397.01 79.56" stroke="hsl(228.5, 77.2%, 51.5%)" stroke-width="1.5"></path><path d="M1594.08 197.7L1594.08 197.7" stroke="hsl(228.5, 77.2%, 51.5%)" stroke-width="1.5"></path><path d="M1594.08 197.7L1581.91 351.01" stroke="hsl(228.5, 77.2%, 51.5%)" stroke-width="1.5"></path><path d="M1594.08 197.7L1397.01 79.56" stroke="hsl(228.5, 77.2%, 51.5%)" stroke-width="1.5"></path><path d="M1594.08 197.7L1455.43 382.85" stroke="hsl(228.5, 77.2%, 51.5%)" stroke-width="1.5"></path><path d="M1594.08 197.7L1433.11 -47.14" stroke="hsl(228.5, 77.2%, 51.5%)" stroke-width="1.5"></path><path d="M1581.91 351.01L1581.91 351.01" stroke="hsl(228.5, 77.2%, 51.5%)" stroke-width="1.5"></path><path d="M1581.91 351.01L1546.35 524.78" stroke="hsl(228.5, 77.2%, 51.5%)" stroke-width="1.5"></path><path d="M1578.15 653.53L1578.15 653.53" stroke="hsl(228.5, 77.2%, 51.5%)" stroke-width="1.5"></path><path d="M1578.15 653.53L1305.21 671.12" stroke="hsl(228.5, 77.2%, 51.5%)" stroke-width="1.5"></path><circle r="25" cx="550.82" cy="399.92" fill="url(&quot;#SvgjsRadialGradient1007&quot;)"></circle><circle r="25" cx="551.02" cy="488.76" fill="url(&quot;#SvgjsRadialGradient1007&quot;)"></circle><circle r="25" cx="965.66" cy="666.87" fill="url(&quot;#SvgjsRadialGradient1007&quot;)"></circle><circle r="25" cx="1148.66" cy="241.61" fill="url(&quot;#SvgjsRadialGradient1007&quot;)"></circle><circle r="25" cx="1087.92" cy="650.59" fill="url(&quot;#SvgjsRadialGradient1007&quot;)"></circle><circle r="25" cx="1242.77" cy="55.11" fill="url(&quot;#SvgjsRadialGradient1007&quot;)"></circle><circle r="25" cx="1248.74" cy="220.28" fill="url(&quot;#SvgjsRadialGradient1007&quot;)"></circle><circle r="25" cx="1455.43" cy="382.85" fill="url(&quot;#SvgjsRadialGradient1007&quot;)"></circle><circle r="25" cx="1546.35" cy="524.78" fill="url(&quot;#SvgjsRadialGradient1007&quot;)"></circle><circle r="5" cx="-105.5" cy="506.74" fill="#8b9ad9"></circle><circle r="5" cx="-77.74" cy="668.92" fill="#8b9ad9"></circle><circle r="5" cx="80.32" cy="521.92" fill="#8b9ad9"></circle><circle r="5" cx="50.06" cy="699.57" fill="#8b9ad9"></circle><circle r="5" cx="261.45" cy="517.26" fill="#8b9ad9"></circle><circle r="5" cx="222.27" cy="670.35" fill="#8b9ad9"></circle><circle r="5" cx="407.51" cy="525.89" fill="#8b9ad9"></circle><circle r="5" cx="358.82" cy="638.16" fill="#8b9ad9"></circle><circle r="5" cx="505" cy="658.62" fill="#8b9ad9"></circle><circle r="5" cx="678.54" cy="499.71" fill="#8b9ad9"></circle><circle r="5" cx="700.81" cy="678.93" fill="#8b9ad9"></circle><circle r="5" cx="796.98" cy="365.44" fill="#8b9ad9"></circle><circle r="5" cx="843.21" cy="557.18" fill="#8b9ad9"></circle><circle r="5" cx="942.26" cy="380.48" fill="#8b9ad9"></circle><circle r="5" cx="1002.48" cy="544.12" fill="#8b9ad9"></circle><circle r="5" cx="1100.51" cy="338.8" fill="#8b9ad9"></circle><circle r="5" cx="1149" cy="505.57" fill="#8b9ad9"></circle><circle r="5" cx="1301.01" cy="-43.96" fill="#8b9ad9"></circle><circle r="5" cx="1251.7" cy="399.34" fill="#8b9ad9"></circle><circle r="5" cx="1264.63" cy="528.75" fill="#8b9ad9"></circle><circle r="5" cx="1305.21" cy="671.12" fill="#8b9ad9"></circle><circle r="5" cx="1433.11" cy="-47.14" fill="#8b9ad9"></circle><circle r="5" cx="1397.01" cy="79.56" fill="#8b9ad9"></circle><circle r="5" cx="1431.42" cy="217.75" fill="#8b9ad9"></circle><circle r="5" cx="1457.22" cy="533.27" fill="#8b9ad9"></circle><circle r="5" cx="1417.26" cy="705.02" fill="#8b9ad9"></circle><circle r="5" cx="1584.99" cy="-96.9" fill="#8b9ad9"></circle><circle r="5" cx="1590.83" cy="96.07" fill="#8b9ad9"></circle><circle r="5" cx="1594.08" cy="197.7" fill="#8b9ad9"></circle><circle r="5" cx="1581.91" cy="351.01" fill="#8b9ad9"></circle><circle r="5" cx="1578.15" cy="653.53" fill="#8b9ad9"></circle></g><defs><mask id="SvgjsMask1006"><rect width="1440" height="560" fill="#ffffff"></rect></mask><radialGradient id="SvgjsRadialGradient1007"><stop stop-color="#ffffff" offset="0.1"></stop><stop stop-color="#1735b3" offset="0.2"></stop><stop stop-color="rgba(23, 53, 179, 0)" offset="1"></stop></radialGradient></defs></svg>